<svg xmlns="http://www.w3.org/2000/svg" viewBox="0 0 1328 1184" preserveAspectRatio="xMidYMid meet">
<g transform="translate(0.000000,1184.000000) scale(0.100000,-0.100000)"
fill="#000000" stroke="none">
<path d="M6548 10334 c-4 -3 -33 -10 -65 -14 -110 -15 -208 -37 -238 -52 -16
-8 -52 -18 -78 -22 -27 -3 -62 -15 -78 -27 -17 -12 -49 -23 -72 -26 -38 -4
-95 -24 -209 -70 -21 -9 -45 -24 -54 -34 -10 -11 -30 -19 -45 -19 -15 0 -30
-4 -34 -9 -3 -5 -39 -25 -80 -45 -41 -19 -91 -50 -112 -69 -21 -18 -63 -44
-94 -56 -31 -12 -67 -33 -79 -47 -13 -13 -51 -38 -84 -55 -34 -17 -79 -48
-101 -69 -22 -20 -54 -46 -71 -58 -50 -34 -513 -502 -561 -567 -12 -16 -39
-55 -59 -85 -20 -30 -51 -71 -69 -90 -18 -19 -42 -61 -54 -93 -12 -33 -32 -73
-45 -90 -35 -48 -53 -87 -61 -137 -4 -25 -15 -62 -26 -83 -10 -21 -19 -50 -19
-65 0 -15 -9 -51 -20 -80 -11 -29 -20 -67 -20 -85 0 -18 -9 -60 -19 -93 -37
-115 -43 -188 -38 -484 5 -403 17 -479 101 -653 25 -52 46 -99 46 -105 0 -14
70 -152 91 -180 10 -13 21 -37 24 -55 4 -18 13 -39 21 -48 8 -8 35 -50 61 -91
70 -110 142 -207 189 -253 23 -22 52 -56 64 -75 38 -56 117 -138 338 -352 61
-60 115 -108 119 -108 5 0 33 -23 63 -51 30 -28 68 -57 83 -65 16 -9 54 -35
85 -58 31 -24 87 -57 124 -75 37 -17 84 -48 105 -68 21 -19 56 -43 78 -53 22
-9 69 -37 105 -62 61 -42 65 -47 64 -82 -1 -29 -12 -48 -55 -95 -65 -71 -90
-105 -114 -151 -10 -19 -38 -58 -64 -87 -75 -84 -99 -118 -106 -145 -4 -14
-37 -56 -75 -92 -38 -36 -81 -82 -96 -103 -16 -21 -49 -61 -74 -89 -25 -28
-72 -84 -105 -123 -134 -160 -397 -452 -491 -546 -39 -38 -106 -99 -148 -135
-43 -36 -128 -114 -189 -174 -62 -60 -137 -125 -167 -145 -30 -19 -85 -62
-122 -96 -36 -33 -87 -76 -113 -95 -26 -19 -86 -71 -135 -115 -48 -44 -120
-109 -159 -145 -40 -36 -96 -82 -126 -102 -30 -20 -83 -64 -117 -97 -35 -33
-83 -75 -107 -93 -25 -18 -59 -44 -77 -58 -18 -14 -57 -43 -86 -66 -29 -22
-81 -60 -115 -83 -35 -24 -66 -48 -70 -55 -5 -7 -91 -68 -193 -136 -237 -158
-310 -210 -310 -220 0 -5 -12 -22 -26 -40 -30 -36 -49 -103 -35 -128 5 -9 36
-28 70 -41 56 -22 65 -23 138 -12 43 6 94 20 113 30 19 10 85 44 145 76 61 32
112 62 114 67 3 8 43 30 151 82 19 10 42 22 50 27 8 5 28 17 44 27 42 25 128
81 251 162 60 40 121 78 135 84 43 19 120 69 164 107 22 20 52 40 66 44 26 7
110 62 195 128 28 21 75 57 105 80 30 22 68 54 83 69 16 15 34 28 40 28 6 0
36 20 67 44 31 24 83 57 116 73 32 16 129 76 214 133 85 56 166 108 180 114
26 11 62 39 165 126 30 25 72 59 95 75 72 53 151 118 224 185 39 36 98 86 131
110 82 61 125 102 125 118 0 22 151 173 188 189 21 9 38 26 47 46 18 42 80
102 126 121 27 11 42 27 57 60 16 34 29 47 56 56 26 8 38 20 46 43 6 18 50 72
103 124 50 50 106 104 122 121 65 65 172 182 205 226 158 210 207 239 348 209
101 -21 530 -14 592 11 25 9 82 24 127 32 45 8 100 21 122 29 23 8 68 19 102
25 75 14 295 87 329 109 14 9 66 36 115 60 201 96 243 117 300 150 33 18 75
47 92 64 20 19 45 32 66 33 35 3 239 133 288 183 15 15 59 49 98 76 46 32 77
61 85 80 9 21 29 39 62 55 27 14 60 35 74 47 14 12 45 35 70 52 25 16 92 74
149 128 102 97 148 144 306 311 44 47 89 94 100 106 38 39 92 111 108 142 9
18 34 51 56 75 58 64 193 245 215 287 10 21 30 51 45 69 52 65 72 92 86 125 9
18 31 53 50 78 52 67 95 133 95 147 0 7 16 31 36 53 20 22 46 58 57 80 113
212 139 267 162 336 15 43 33 89 41 101 8 12 20 48 28 80 13 57 29 91 107 227
21 38 44 86 49 106 6 21 19 49 30 63 11 14 20 38 20 54 0 16 14 51 32 77 30
46 31 53 35 168 4 102 2 123 -13 146 -11 17 -18 48 -19 82 -5 286 -4 279 -76
289 -43 6 -44 8 -59 55 -11 37 -24 56 -56 80 -23 17 -48 43 -57 58 -8 15 -35
41 -59 58 -52 38 -97 37 -152 -5 -32 -24 -40 -26 -91 -20 -56 7 -56 7 -108
-49 -57 -62 -77 -67 -140 -41 -65 27 -75 22 -109 -52 -41 -91 -53 -103 -98
-103 -31 0 -44 -7 -73 -39 -61 -68 -71 -88 -58 -117 17 -38 13 -68 -12 -92
-12 -12 -37 -50 -55 -85 -32 -63 -33 -65 -18 -108 24 -68 -4 -229 -44 -254 -6
-4 -30 -48 -54 -99 -24 -51 -66 -122 -93 -159 -57 -79 -69 -96 -150 -219 -33
-51 -74 -106 -89 -123 -45 -47 -139 -176 -163 -222 -11 -23 -25 -44 -30 -48
-6 -3 -30 -36 -55 -73 -25 -37 -65 -87 -89 -112 -74 -78 -211 -205 -240 -224
-16 -9 -37 -32 -48 -51 -11 -18 -36 -44 -57 -58 -20 -14 -82 -69 -136 -121
-55 -53 -103 -96 -107 -96 -5 0 -48 -36 -96 -81 -49 -44 -124 -105 -168 -135
-113 -76 -125 -85 -167 -116 -20 -16 -55 -35 -77 -43 -23 -8 -80 -32 -126 -55
-47 -22 -91 -40 -98 -40 -7 0 -30 -10 -52 -21 -61 -33 -162 -69 -193 -69 -31
0 -52 16 -52 39 0 9 12 41 26 71 58 119 65 137 78 185 8 28 23 73 34 100 46
111 100 252 106 280 4 17 13 37 21 45 17 19 63 135 71 180 4 19 15 52 26 73
10 21 24 63 29 95 6 31 17 69 25 85 16 30 52 179 64 267 4 30 13 67 18 81 11
28 30 167 39 279 3 36 11 83 18 105 10 30 12 109 9 322 -3 261 -5 284 -24 319
-11 22 -20 52 -20 69 0 16 -7 62 -16 100 -8 39 -19 95 -24 125 -12 78 -35 155
-65 213 -14 28 -25 58 -25 67 0 19 -51 119 -95 185 -56 84 -242 253 -380 345
-12 8 -42 34 -66 58 -24 23 -60 47 -79 53 -19 7 -84 36 -145 65 -95 45 -124
54 -210 65 -113 14 -377 23 -387 13z m277 -1305 c35 -16 87 -113 105 -196 6
-29 22 -87 36 -130 22 -67 26 -103 30 -248 5 -166 -6 -315 -28 -405 -13 -54
-24 -127 -38 -274 -6 -60 -22 -147 -36 -194 -13 -46 -24 -96 -24 -111 0 -31
-133 -429 -161 -480 -10 -20 -19 -42 -19 -50 0 -12 -83 -192 -134 -291 -13
-25 -29 -70 -35 -101 -14 -66 -36 -91 -83 -91 -34 -1 -119 35 -175 75 -18 12
-69 45 -113 72 -44 28 -80 53 -80 57 0 3 -30 28 -67 54 -70 50 -311 284 -373
363 -19 24 -46 58 -61 75 -14 17 -42 58 -64 91 -21 33 -49 72 -61 88 -13 15
-37 57 -54 95 -17 37 -44 94 -60 127 -17 33 -38 96 -49 140 -17 70 -18 97 -11
210 11 166 25 282 39 319 12 31 97 135 121 150 8 5 63 56 121 115 142 142 159
156 229 191 33 17 60 34 60 39 0 5 14 14 31 21 17 7 49 28 71 47 22 18 44 33
50 33 6 0 43 20 83 45 40 25 101 55 136 67 35 11 76 29 91 40 38 27 143 58
197 59 25 0 66 4 91 9 64 12 200 6 235 -11z"/>
</g>
</svg>
